Coordinates
version=1
nRows=19
nColumns=63
inDegrees=yes

Units are S.I. units (second, meters, Newtons, ...)
If the header above contains a line with 'inDegrees', this indicates whether rotational values are in degrees (yes) or radians (no).

endheader
time	pelvis_tilt	pelvis_list	pelvis_rotation	pelvis_tx	pelvis_ty	pelvis_tz	hip_flexion_r	hip_adduction_r	hip_rotation_r	knee_angle_r	knee_angle_r_beta	ankle_angle_r	subtalar_angle_r	mtp_angle_r	hip_flexion_l	hip_adduction_l	hip_rotation_l	knee_angle_l	knee_angle_l_beta	ankle_angle_l	subtalar_angle_l	mtp_angle_l	L5_S1_Flex_Ext	L5_S1_Lat_Bending	L5_S1_axial_rotation	L4_L5_Flex_Ext	L4_L5_Lat_Bending	L4_L5_axial_rotation	L3_L4_Flex_Ext	L3_L4_Lat_Bending	L3_L4_axial_rotation	L2_L3_Flex_Ext	L2_L3_Lat_Bending	L2_L3_axial_rotation	L1_L2_Flex_Ext	L1_L2_Lat_Bending	L1_L2_axial_rotation	L1_T12_Flex_Ext	L1_T12_Lat_Bending	L1_T12_axial_rotation	Abs_r3	Abs_r2	Abs_r1	Abs_t1	Abs_t2	neck_flexion	neck_bending	neck_rotation	arm_flex_r	arm_add_r	arm_rot_r	elbow_flex_r	pro_sup_r	wrist_flex_r	wrist_dev_r	arm_flex_l	arm_add_l	arm_rot_l	elbow_flex_l	pro_sup_l	wrist_flex_l	wrist_dev_l
3.650000	-0.527765	-6.926261	88.502316	0.105057	0.927056	0.475054	16.995908	2.153062	-17.392493	18.236963	0.318295	40.173058	10.687557	0.000000	18.811788	-5.098145	-12.006807	21.714354	0.378987	44.147860	17.021910	0.000000	-0.836669	0.651716	-1.526646	-1.553778	0.866782	-1.622061	-1.374564	1.584583	-1.622061	-0.956229	1.584583	-1.335815	-0.776931	1.328980	-1.240399	-0.478073	1.009508	-1.144984	-5.976244	7.372343	-8.490744	0.000000	0.000000	10.212327	-0.853526	-2.669176	20.017367	-26.255415	93.455828	16.913041	4.516455	-3.587899	-7.998984	12.872146	-19.432480	117.167182	6.952335	5.609236	-5.523948	-8.394555
3.666667	-1.486040	-6.303320	88.464551	0.107898	0.928627	0.471699	15.716109	1.573497	-15.808041	17.452832	0.304609	39.662065	9.054568	0.000000	17.302103	-4.265164	-12.416016	20.493248	0.357675	43.447533	17.040627	0.000000	-0.779179	0.463556	-1.622061	-1.447013	0.616529	-1.723440	-1.280113	1.127090	-1.723440	-0.890524	1.127090	-1.419304	-0.723546	0.945283	-1.317925	-0.445223	0.718048	-1.216546	-5.565597	5.243837	-9.021418	0.000000	0.000000	9.505154	-0.007747	-3.375278	20.097743	-25.486697	87.597662	17.671962	7.736694	-3.302353	-8.038478	13.076682	-20.210164	121.858139	6.229442	7.872156	-6.781622	-7.357016
3.683333	-2.277575	-5.611549	88.620581	0.110645	0.930377	0.467724	14.175218	1.186013	-14.028280	16.316931	0.284784	38.870561	6.929513	0.000000	15.725757	-3.538911	-12.523438	19.237800	0.335763	42.739054	17.069839	0.000000	-0.713327	0.294144	-1.733065	-1.324720	0.391212	-1.841381	-1.171925	0.715182	-1.841381	-0.815261	0.715182	-1.516432	-0.662395	0.599819	-1.408115	-0.407595	0.455629	-1.299799	-5.095224	3.327418	-9.638786	0.000000	0.000000	8.856761	0.798839	-4.073186	20.035751	-24.674225	81.567227	18.607387	11.974618	-3.037145	-7.820871	13.279989	-20.877962	127.539091	5.421217	9.970288	-8.240177	-6.292611
3.700000	-2.863874	-4.871996	88.931176	0.113256	0.932315	0.463212	12.411187	1.025272	-12.073689	14.844908	0.259093	37.802470	4.377587	0.000000	14.107494	-2.960138	-12.350191	17.962586	0.313506	42.041019	17.101017	0.000000	-0.639585	0.150665	-1.852644	-1.187774	0.200384	-1.968434	-1.050775	0.366326	-1.968434	-0.730982	0.366326	-1.621064	-0.593919	0.307236	-1.505273	-0.365459	0.233380	-1.389483	-4.568494	1.704350	-10.303851	0.000000	0.000000	8.304644	1.546075	-4.705807	19.882106	-23.863626	75.720720	19.686720	16.922742	-2.841183	-7.290166	13.474015	-21.404294	133.914372	4.555941	11.683116	-9.834618	-5.263252
3.716667	-3.275030	-4.127049	89.317297	0.115686	0.934433	0.458353	10.517103	1.031488	-10.066688	13.160547	0.229695	36.534242	1.643232	0.000000	12.469025	-2.519495	-11.975358	16.662663	0.290818	41.359285	17.126818	0.000000	-0.559889	0.032549	-1.970511	-1.039770	0.043290	-2.093668	-0.919842	0.079139	-2.093668	-0.639897	0.079139	-1.724197	-0.519913	0.066373	-1.601040	-0.319921	0.050418	-1.477883	-3.999232	0.368197	-10.959392	0.000000	0.000000	7.901066	2.231851	-5.194683	19.642868	-23.058539	69.975978	20.901435	22.732576	-2.705609	-6.405858	13.647821	-21.782923	140.061313	3.693149	13.165497	-11.459946	-4.414978
3.733333	-3.511963	-3.404316	89.731373	0.117897	0.936697	0.453341	8.566155	1.201629	-8.000513	11.327183	0.197697	35.092618	-1.230483	0.000000	10.852795	-2.226425	-11.448112	15.363252	0.268139	40.716251	17.139405	0.000000	-0.477175	-0.057524	-2.081534	-0.886161	-0.076507	-2.211630	-0.783950	-0.139863	-2.211630	-0.545363	-0.139863	-1.821342	-0.443104	-0.117303	-1.691246	-0.272658	-0.089104	-1.561151	-3.408411	-0.650721	-11.576868	0.000000	0.000000	7.688205	2.844234	-5.477928	19.347914	-22.266460	64.609991	22.225156	29.193517	-2.641032	-5.217532	13.828420	-21.990727	145.912086	2.866865	14.252793	-13.151029	-3.830902
3.750000	-3.594284	-2.727211	90.127017	0.119856	0.939057	0.448353	6.628868	1.505612	-5.893414	9.419298	0.164398	33.535073	-4.159688	0.000000	9.297265	-2.068632	-10.826678	14.087306	0.245870	40.123190	17.137857	0.000000	-0.392964	-0.119543	-2.184462	-0.729773	-0.158992	-2.320991	-0.645601	-0.290657	-2.320991	-0.449119	-0.290657	-1.911404	-0.364906	-0.243772	-1.774876	-0.224540	-0.185172	-1.638347	-2.806902	-1.352294	-12.149323	0.000000	0.000000	7.666378	3.381240	-5.470194	19.016899	-21.498061	59.698893	23.652688	36.092544	-2.582235	-3.775888	14.006185	-22.021108	151.049425	2.111446	14.937488	-14.895000	-3.718619
3.766667	-3.540799	-2.109202	90.465755	0.121553	0.941464	0.443564	4.767936	1.918385	-3.779737	7.516739	0.131192	31.906018	-7.059932	0.000000	7.831541	-2.038148	-10.165909	12.857392	0.224404	39.596810	17.108054	0.000000	-0.309261	-0.154771	-2.278002	-0.574329	-0.205845	-2.420377	-0.508085	-0.376310	-2.420377	-0.353455	-0.376310	-1.993252	-0.287180	-0.315609	-1.850876	-0.176712	-0.239740	-1.708501	-2.209022	-1.750800	-12.669562	0.000000	0.000000	7.810582	3.846948	-5.153672	18.646534	-20.778732	55.147561	25.207862	43.076959	-2.471627	-2.178242	14.185543	-21.871595	155.250690	1.455368	15.207011	-16.659835	-4.145658
3.783333	-3.375605	-1.556665	90.687943	0.123048	0.943879	0.439118	3.038358	2.408575	-1.658162	5.702346	0.099525	30.266223	-9.840521	0.000000	6.465434	-2.121295	-9.544145	11.684287	0.203929	39.142058	17.042758	0.000000	-0.227044	-0.166226	-2.350634	-0.421643	-0.221081	-2.497548	-0.373011	-0.404163	-2.497548	-0.259489	-0.404163	-2.056805	-0.210833	-0.338969	-1.909890	-0.129733	-0.257484	-1.762975	-1.621753	-1.880385	-13.073520	0.000000	0.000000	8.047247	4.221944	-4.602405	18.203197	-20.141281	50.712800	26.919585	49.840485	-2.309666	-0.551945	14.383955	-21.542542	158.141922	0.919287	15.046173	-18.053067	-5.076366
3.800000	-3.118608	-1.079755	90.791840	0.124301	0.946251	0.435097	1.487383	2.948081	0.379877	4.042862	0.070561	28.663758	-12.406701	0.000000	5.226758	-2.302674	-8.994106	10.595762	0.184931	38.774157	16.925652	0.000000	-0.145828	-0.156385	-2.396640	-0.270817	-0.207991	-2.546430	-0.239581	-0.380233	-2.546430	-0.166667	-0.380233	-2.097060	-0.135416	-0.318899	-1.947270	-0.083326	-0.242240	-1.797480	-1.041636	-1.769053	-13.329395	0.000000	0.000000	8.317352	4.538802	-3.869937	17.633855	-19.620224	46.232616	28.825906	56.039180	-1.936852	1.051300	14.607995	-21.017769	159.775940	0.519083	14.464397	-19.350225	-6.437264
3.816667	-2.829947	-0.676777	90.730052	0.125403	0.948560	0.431607	0.163321	3.466522	2.314025	2.625466	0.045823	27.163666	-14.660668	0.000000	4.105379	-2.527741	-8.594962	9.578019	0.167168	38.468769	16.771761	0.000000	-0.066556	-0.134097	-2.403653	-0.123602	-0.178349	-2.553881	-0.109346	-0.326044	-2.553881	-0.076067	-0.326044	-2.103196	-0.061804	-0.273451	-1.952968	-0.038030	-0.207717	-1.802740	-0.475406	-1.516934	-13.368397	0.000000	0.000000	8.560018	4.815707	-3.074645	16.960017	-19.178824	41.870185	30.889889	61.655083	-1.609170	2.490272	14.897020	-20.344160	159.824245	0.268594	13.455521	-19.870647	-8.145989
3.833333	-2.462382	-0.337248	90.540649	0.126272	0.950830	0.428782	-0.942113	4.000078	4.056921	1.441641	0.025161	25.760168	-16.541936	0.000000	3.131525	-2.833258	-8.319224	8.691901	0.151702	38.231820	16.570401	0.000000	0.006780	-0.093632	-2.369800	0.012592	-0.124530	-2.517913	0.011140	-0.227656	-2.517913	0.007749	-0.227656	-2.073575	0.006296	-0.190934	-1.925463	0.003874	-0.145036	-1.777350	0.048432	-1.059181	-13.180119	0.000000	0.000000	8.729869	4.996009	-2.283145	16.288000	-18.866829	38.082262	33.052784	66.434964	-1.357591	3.682753	15.359444	-19.515712	157.476993	0.179036	12.086382	-17.874225	-10.121372
3.850000	-2.127115	-0.062916	90.127312	0.126966	0.953055	0.426708	-1.739246	4.424171	5.564173	0.656337	0.011455	24.558738	-17.871203	0.000000	2.269129	-3.115262	-8.285799	7.872135	0.137395	38.002953	16.311480	0.000000	0.072833	-0.047947	-2.278337	0.135257	-0.063770	-2.420733	0.119657	-0.116579	-2.420733	0.083240	-0.116579	-1.993545	0.067632	-0.097774	-1.851149	0.041617	-0.074271	-1.708753	0.520236	-0.542391	-12.671428	0.000000	0.000000	8.830203	5.085953	-1.529823	15.656192	-18.672535	34.942034	35.285490	70.557156	-1.358048	4.605626	16.000124	-18.510760	154.344326	0.197070	10.270427	-15.509861	-12.309852
3.866667	-1.792737	0.137108	89.583312	0.127409	0.955178	0.425426	-2.240438	4.763849	6.694775	0.225852	0.003942	23.585169	-18.566102	0.000000	1.578827	-3.398070	-8.428418	7.189414	0.125479	37.797603	16.028088	0.000000	0.129396	0.006060	-2.146946	0.240302	0.008059	-2.281130	0.212585	0.014734	-2.281130	0.147887	0.014734	-1.878578	0.120157	0.012357	-1.744394	0.073937	0.009387	-1.610210	0.924264	0.068549	-11.940671	0.000000	0.000000	8.927784	5.066156	-0.796032	15.181882	-18.600911	32.813195	37.510337	73.955623	-1.533942	5.223527	16.848046	-17.343450	151.183499	0.276327	8.068584	-13.495813	-14.616230
3.883333	-1.470379	0.262168	88.974306	0.127546	0.957147	0.424940	-2.446810	5.005777	7.344485	0.150856	0.002633	22.869402	-18.578929	0.000000	1.082215	-3.666841	-8.712328	6.662809	0.116288	37.618406	15.767031	0.000000	0.174099	0.066381	-1.993302	0.323320	0.088286	-2.117884	0.286028	0.161398	-2.117884	0.198978	0.161398	-1.744140	0.161669	0.135364	-1.619558	0.099480	0.102824	-1.494977	1.243574	0.750912	-11.086150	0.000000	0.000000	9.083893	4.944131	-0.048256	14.957925	-18.606973	31.903654	39.615525	76.882747	-1.653851	5.464516	17.913659	-16.052264	148.243622	0.392169	5.837391	-12.245180	-16.968074
3.900000	-1.166918	0.308500	88.336809	0.127381	0.958894	0.425275	-2.353935	5.158821	7.506334	0.424626	0.007411	22.432530	-17.930845	0.000000	0.803783	-3.916683	-9.104061	6.319026	0.110288	37.469927	15.522987	0.000000	0.205134	0.131177	-1.824109	0.380955	0.174466	-1.938116	0.337015	0.318944	-1.938116	0.234448	0.318944	-1.596095	0.190488	0.267497	-1.482089	0.117214	0.203194	-1.368082	1.465252	1.483904	-10.145147	0.000000	0.000000	9.387712	4.697349	0.686904	15.030547	-18.690563	32.173170	41.547037	79.119362	-1.543720	5.379809	19.232431	-14.647048	146.772874	0.423546	3.385827	-11.901028	-19.161648
3.916667	-0.896227	0.296213	87.744633	0.126913	0.960403	0.426324	-2.017648	5.211154	7.023954	1.001395	0.017478	22.312513	-16.504330	0.000000	0.720361	-4.129238	-9.554139	6.145436	0.107258	37.348201	15.331603	0.000000	0.221378	0.196253	-1.657555	0.411122	0.261017	-1.761152	0.363703	0.477170	-1.761152	0.253013	0.477170	-1.450360	0.205572	0.400200	-1.346763	0.126496	0.303996	-1.243166	1.581284	2.220056	-9.218823	0.000000	0.000000	9.853519	4.347927	1.391511	15.475256	-18.779060	33.996515	43.150084	79.928428	-1.036420	5.053998	20.787804	-13.173759	146.678340	0.410879	1.420660	-12.708372	-21.072259
3.933333	-0.453896	0.293407	87.293190	0.125636	0.961969	0.427879	-1.732383	5.499682	7.080967	1.390678	0.024272	21.892228	-15.948085	0.000000	0.766389	-4.480244	-9.896697	6.165183	0.107603	37.289755	15.123445	0.000000	0.221922	0.287636	-1.449686	0.412132	0.382556	-1.540292	0.364596	0.699358	-1.540292	0.253635	0.699358	-1.268476	0.206077	0.586548	-1.177870	0.126806	0.445548	-1.087265	1.585170	3.253797	-8.062721	0.000000	0.000000	10.286985	3.640586	1.661118	15.783616	-19.252290	35.014821	44.850200	80.770210	-0.357306	4.989163	23.309569	-10.368364	155.276218	-2.408708	-2.859013	-16.140140	-23.801867
3.950000	-0.109965	0.234353	87.017915	0.124233	0.963157	0.429489	-1.446598	5.708347	7.181622	1.650468	0.028806	21.489945	-15.614747	0.000000	0.941764	-4.730656	-10.141314	6.270871	0.109447	37.247851	14.966491	0.000000	0.218600	0.364781	-1.287968	0.405963	0.485159	-1.368466	0.359139	0.886929	-1.368466	0.249838	0.886929	-1.126972	0.202992	0.743862	-1.046474	0.124908	0.565046	-0.965976	1.561440	4.126480	-7.163291	0.000000	0.000000	10.958639	2.926394	1.862087	16.283466	-19.582126	36.609367	46.315793	80.498912	0.500630	4.972496	25.423240	-8.092359	160.203116	-3.695545	-3.273938	-19.031466	-25.646876
